<?xml version="1.0" standalone="no"?>
<!DOCTYPE svg PUBLIC "-//W3C//DTD SVG 20010904//EN"
 "http://www.w3.org/TR/2001/REC-SVG-20010904/DTD/svg10.dtd">
<svg version="1.0" xmlns="http://www.w3.org/2000/svg"
 width="237.000000pt" height="123.000000pt" viewBox="0 0 237.000000 123.000000"
 preserveAspectRatio="xMidYMid meet">

<g transform="translate(0.000000,123.000000) scale(0.100000,-0.100000)"
fill="#000000" stroke="none">
<path d="M855 1052 c-16 -10 -36 -30 -43 -43 -7 -14 -44 -40 -85 -61 -92 -47
-260 -118 -278 -118 -28 0 -154 -68 -179 -96 -61 -70 -89 -121 -136 -251 -19
-52 -41 -101 -49 -110 -27 -26 -18 -61 28 -106 42 -41 68 -57 157 -95 78 -34
112 -41 225 -47 135 -8 171 -12 195 -25 27 -14 63 -13 58 3 -3 6 -13 14 -24
15 -42 8 -36 22 9 22 34 0 47 4 47 14 0 19 -23 26 -67 19 -40 -6 -42 4 -3 12
19 4 44 25 37 31 -1 1 -45 -2 -96 -6 -53 -5 -119 -4 -150 1 -31 5 -59 9 -63 9
-5 0 -8 4 -8 9 0 5 65 11 144 13 125 3 147 6 165 22 29 26 26 68 -6 106 l-26
32 31 31 32 32 0 -47 c0 -26 5 -58 11 -72 12 -25 82 -77 155 -114 43 -22 169
-50 197 -44 27 6 20 22 -13 29 -46 9 -46 22 0 29 54 9 51 24 -5 24 -52 0 -59
13 -15 29 35 12 41 36 8 28 -13 -3 -33 -8 -45 -10 -12 -3 -31 -11 -43 -17 -29
-15 -47 -7 -103 43 l-47 44 20 49 c10 27 24 68 30 91 6 24 38 77 78 130 84
111 130 197 136 256 5 56 -6 68 -92 96 -35 11 -79 30 -97 41 -40 25 -52 25
-90 2z"/>
<path d="M1858 852 l-37 -17 19 -23 c17 -21 19 -41 19 -188 0 -152 -2 -166
-20 -177 -33 -21 -21 -27 51 -27 68 0 91 12 50 25 -17 5 -20 15 -20 58 l1 52
29 -35 c16 -19 40 -50 52 -67 20 -29 28 -33 71 -33 47 0 63 13 30 24 -10 3
-45 36 -78 72 l-59 67 44 39 c25 21 53 41 63 44 9 3 17 11 17 17 0 8 -20 12
-60 12 -39 0 -60 -4 -60 -12 0 -6 6 -13 13 -16 8 -3 -1 -19 -25 -43 l-38 -39
0 143 c0 156 2 153 -62 124z"/>
<path d="M2191 727 c-11 -19 -33 -40 -48 -47 l-28 -14 28 -4 27 -3 0 -103 c0
-116 10 -136 67 -136 42 0 61 9 74 33 10 18 9 20 -19 14 -51 -10 -62 11 -61
109 l1 84 39 0 c53 0 54 28 2 32 -35 3 -38 6 -41 36 -4 41 -15 41 -41 -1z"/>
<path d="M1353 683 c-37 -19 -40 -25 -18 -43 11 -9 15 -34 15 -96 0 -73 -3
-85 -20 -96 -34 -22 -23 -28 50 -28 68 0 91 12 50 25 -19 6 -21 14 -18 98 l3
92 43 0 c32 0 46 5 54 19 21 38 -48 62 -84 29 -17 -15 -18 -15 -18 0 0 21 -15
21 -57 0z"/>
<path d="M1625 690 c-46 -19 -85 -83 -85 -141 0 -80 51 -129 134 -129 36 0 52
6 78 29 18 16 31 32 28 35 -3 3 -25 -2 -49 -10 -35 -12 -47 -12 -69 -2 -27 13
-65 74 -56 90 3 4 43 8 90 8 93 0 96 3 73 69 -18 50 -87 75 -144 51z m62 -35
c11 -8 23 -24 26 -35 5 -18 0 -20 -49 -20 -60 0 -70 14 -34 50 24 24 29 24 57
5z"/>
</g>
</svg>
