<?xml version="1.0" encoding="UTF-8" standalone="no"?>
<!DOCTYPE svg PUBLIC "-//W3C//DTD SVG 1.1//EN" "http://www.w3.org/Graphics/SVG/1.1/DTD/svg11.dtd">
<svg version="1.1" xmlns="http://www.w3.org/2000/svg" xmlns:xlink="http://www.w3.org/1999/xlink" preserveAspectRatio="xMidYMid meet" viewBox="0 0 214 70" width="214" height="70"><defs><path d="M44.67 11.41C44.26 12.3 42.07 13.96 39.65 15.3C34.21 18.3 24.27 22.82 23.21 22.82C21.55 22.82 14.1 27.16 12.62 28.95C9.02 33.41 7.36 36.66 4.58 44.95C3.46 48.27 2.16 51.39 1.68 51.97C0.09 53.62 0.62 55.86 3.34 58.73C5.82 61.34 7.36 62.36 12.62 64.78C17.23 66.95 19.25 67.4 25.93 67.78C33.91 68.29 36.04 68.55 37.46 69.38C39.05 70.27 41.18 70.2 40.89 69.18C40.71 68.8 40.12 68.29 39.47 68.23C36.98 67.72 37.34 66.82 40 66.82C42.01 66.82 42.78 66.57 42.78 65.93C42.78 64.72 41.42 64.27 38.82 64.72C36.45 65.1 36.33 64.46 38.64 63.95C39.76 63.7 41.24 62.36 40.83 61.98C40.77 61.91 38.17 62.11 35.15 62.36C32.02 62.68 28.11 62.62 26.28 62.3C24.45 61.98 22.79 61.72 22.56 61.72C22.26 61.72 22.08 61.47 22.08 61.15C22.08 60.83 25.93 60.45 30.6 60.32C37.99 60.13 39.29 59.94 40.36 58.92C42.07 57.26 41.89 54.58 40 52.16C39.9 52.02 39.39 51.34 38.46 50.12L40.3 48.14L42.19 46.1C42.19 47.9 42.19 48.9 42.19 49.1C42.19 50.75 42.48 52.8 42.84 53.69C43.55 55.28 47.69 58.6 52 60.96C54.55 62.36 62 64.15 63.65 63.76C65.25 63.38 64.84 62.36 62.88 61.91C60.16 61.34 60.16 60.51 62.88 60.06C66.08 59.49 65.9 58.53 62.59 58.53C59.51 58.53 59.1 57.71 61.7 56.69C63.77 55.92 64.13 54.39 62.17 54.9C61.41 55.09 60.22 55.41 59.51 55.54C58.8 55.73 57.68 56.24 56.97 56.62C55.26 57.58 54.19 57.07 50.88 53.88C50.7 53.69 49.77 52.76 48.1 51.07C48.81 49.2 49.21 48.16 49.28 47.95C49.88 46.23 50.7 43.61 51.06 42.15C51.41 40.62 53.31 37.24 55.67 33.86C60.64 26.78 63.36 21.29 63.71 17.53C64.01 13.96 63.36 13.2 58.27 11.41C56.2 10.71 53.6 9.5 52.54 8.8C50.17 7.2 49.46 7.2 47.21 8.67C46.27 9.31 45.09 10.58 44.67 11.41Z" id="ahUEV1Ja"></path><path d="M147.11 8.55C148.63 10.39 149.47 11.41 149.64 11.61C151.91 14.41 152.18 17.08 152.18 36.68C152.18 56.95 151.91 58.81 149.51 60.28C145.11 63.08 146.71 63.88 156.31 63.88C165.38 63.88 168.44 62.28 162.98 60.55C160.71 59.88 160.31 58.55 160.31 52.81C160.32 52.35 160.36 50.04 160.44 45.88C162.76 48.68 164.05 50.24 164.31 50.55C166.44 53.08 169.64 57.21 171.24 59.48C173.91 63.35 174.98 63.88 180.71 63.88C186.98 63.88 189.11 62.15 184.71 60.68C183.38 60.28 178.71 55.88 174.31 51.08C173.78 50.49 171.16 47.51 166.44 42.15C169.96 39.03 171.92 37.29 172.31 36.95C175.64 34.15 179.38 31.48 180.71 31.08C181.91 30.68 182.98 29.61 182.98 28.81C182.98 27.75 180.31 27.21 174.98 27.21C169.78 27.21 166.98 27.75 166.98 28.81C166.98 29.61 167.78 30.55 168.71 30.95C169.78 31.35 168.58 33.48 165.38 36.68C165.04 37.03 163.35 38.76 160.31 41.88C160.31 30.44 160.31 24.09 160.31 22.81C160.31 2.01 160.58 2.41 152.04 6.28C151.38 6.58 149.74 7.34 147.11 8.55Z" id="g7iKN7Lzo"></path><path d="M190.04 29.21C189.79 29.34 188.55 29.96 186.31 31.08L190.04 31.61L193.64 32.01C193.64 40.25 193.64 44.83 193.64 45.75C193.64 61.21 194.98 63.88 202.58 63.88C208.18 63.88 210.71 62.68 212.44 59.48C213.78 57.08 213.64 56.81 209.91 57.61C203.11 58.95 201.64 56.15 201.78 43.08C201.78 42.33 201.83 38.6 201.91 31.88C205.03 31.88 206.76 31.88 207.11 31.88C214.18 31.88 214.31 28.15 207.38 27.61C202.71 27.21 202.31 26.81 201.91 22.81C201.38 17.35 199.91 17.35 196.44 22.95C194.98 25.48 192.04 28.28 190.04 29.21Z" id="d1UG1Fosv"></path><path d="M81.12 33.71C82.58 34.91 83.12 38.25 83.12 46.51C83.12 56.25 82.72 57.85 80.45 59.31C75.92 62.25 77.38 63.05 87.12 63.05C96.18 63.05 99.25 61.45 93.78 59.71C91.25 58.91 90.98 57.85 91.38 46.65C91.41 45.83 91.54 41.74 91.78 34.38C95.22 34.38 97.14 34.38 97.52 34.38C101.78 34.38 103.65 33.71 104.72 31.85C107.52 26.78 98.32 23.58 93.52 27.98C91.25 29.98 91.12 29.98 91.12 27.98C91.12 25.18 89.12 25.18 83.52 27.98C78.58 30.51 78.18 31.31 81.12 33.71Z" id="bDuUFuCUE"></path><path d="M109.64 46.68C109.64 57.35 116.44 63.88 127.51 63.88C132.31 63.88 134.44 63.08 137.91 60.01C140.31 57.88 142.04 55.75 141.64 55.35C141.24 54.95 138.31 55.61 135.11 56.68C130.44 58.28 128.84 58.28 125.91 56.95C122.31 55.21 117.24 47.08 118.44 44.95C118.84 44.41 124.18 43.88 130.44 43.88C142.84 43.88 143.24 43.48 140.18 34.68C137.78 28.01 128.58 24.68 120.98 27.88C114.84 30.41 109.64 38.95 109.64 46.68ZM132.71 37.21C133.38 39.61 132.71 39.88 126.18 39.88C118.18 39.88 116.84 38.01 121.64 33.21C124.84 30.01 125.51 30.01 129.24 32.55C130.71 33.61 132.31 35.75 132.71 37.21Z" id="f3V9XNPos8"></path></defs><g><g><g><use xlink:href="#ahUEV1Ja" opacity="1" fill="#000000" fill-opacity="1"></use><g><use xlink:href="#ahUEV1Ja" opacity="1" fill-opacity="0" stroke="#000000" stroke-width="1" stroke-opacity="0"></use></g></g><g><use xlink:href="#g7iKN7Lzo" opacity="1" fill="#000000" fill-opacity="1"></use><g><use xlink:href="#g7iKN7Lzo" opacity="1" fill-opacity="0" stroke="#000000" stroke-width="1" stroke-opacity="0"></use></g></g><g><use xlink:href="#d1UG1Fosv" opacity="1" fill="#000000" fill-opacity="1"></use><g><use xlink:href="#d1UG1Fosv" opacity="1" fill-opacity="0" stroke="#000000" stroke-width="1" stroke-opacity="0"></use></g></g><g><use xlink:href="#bDuUFuCUE" opacity="1" fill="#000000" fill-opacity="1"></use><g><use xlink:href="#bDuUFuCUE" opacity="1" fill-opacity="0" stroke="#000000" stroke-width="1" stroke-opacity="0"></use></g></g><g><use xlink:href="#f3V9XNPos8" opacity="1" fill="#000000" fill-opacity="1"></use><g><use xlink:href="#f3V9XNPos8" opacity="1" fill-opacity="0" stroke="#000000" stroke-width="1" stroke-opacity="0"></use></g></g></g></g></svg>